<?xml version="1.0"?>
<svg width="640" height="480" xmlns="http://www.w3.org/2000/svg" xmlns:svg="http://www.w3.org/2000/svg">
 <!-- Created with SVG-edit - https://github.com/SVG-Edit/svgedit-->
 <g class="layer">
  <title>Layer 1</title>
  <polyline fill="none" id="svg_2" opacity="0.5" points="401.8823813725919,297.7058763142456 " stroke="#000000" stroke-linecap="round"/>
  <path d="m195.88,137.71c0,0.85 -0.01,1.52 0,2.67c0.01,0.88 0.08,1.47 0.28,2.68c0.14,0.81 0.22,1.26 0.36,2.23c0.07,0.51 0.24,2.15 0.27,2.71c0.07,1.13 0.08,1.7 0.14,2.81c0.03,0.54 0.16,2.07 0.23,2.55c0.13,0.96 0.23,1.44 0.36,2.5c0.07,0.57 0.19,1.87 0.23,2.59c0.04,0.78 0.07,1.6 0.09,2.45c0.02,0.87 0.03,1.75 0.03,2.63c0,0.87 0.01,2.54 0,3.32c0,0.75 0,1.48 -0.01,2.21c-0.01,0.72 -0.02,1.45 -0.05,2.21c-0.03,0.78 -0.11,2.48 -0.16,3.4c-0.06,0.98 -0.13,1.99 -0.21,3.02c-0.08,1.05 -0.17,2.1 -0.27,3.13c-0.09,1.01 -0.29,2.92 -0.4,3.79c-0.1,0.82 -0.2,1.59 -0.3,2.32c-0.1,0.7 -0.2,1.38 -0.3,2.04c-0.1,0.65 -0.3,1.94 -0.4,2.59c-0.1,0.67 -0.21,1.37 -0.32,2.11c-0.12,0.78 -0.25,1.6 -0.39,2.49c-0.15,0.95 -0.52,3.08 -0.73,4.27c-0.23,1.28 -0.47,2.63 -0.74,4.04c-0.28,1.47 -0.57,3 -0.88,4.56c-0.32,1.6 -1,4.87 -1.35,6.52c-0.36,1.66 -0.73,3.3 -1.09,4.93c-0.36,1.6 -0.72,3.17 -1.08,4.7c-0.34,1.47 -0.98,4.22 -1.27,5.48c-0.28,1.2 -0.55,2.36 -0.82,3.49c-0.28,1.12 -0.57,2.26 -0.9,3.42c-0.34,1.21 -1.15,3.83 -1.63,5.28c-0.51,1.54 -1.08,3.16 -1.68,4.86c-0.63,1.76 -1.3,3.57 -1.99,5.43c-0.71,1.9 -2.18,5.77 -2.94,7.72c-0.76,1.96 -1.54,3.93 -2.34,5.9c-0.8,1.98 -1.62,3.95 -2.46,5.92c-0.85,1.97 -2.6,5.89 -3.52,7.83c-0.91,1.93 -1.85,3.82 -2.79,5.67c-0.92,1.81 -1.84,3.55 -2.75,5.22c-0.87,1.6 -2.54,4.51 -3.33,5.8c-0.74,1.21 -1.47,2.34 -2.21,3.4c-0.71,1.03 -1.45,2.04 -2.21,3.03c-0.77,1.01 -2.47,3.11 -3.4,4.23c-0.98,1.18 -2.01,2.4 -3.1,3.65c-1.11,1.27 -2.26,2.56 -3.46,3.82c-1.2,1.28 -3.67,3.75 -4.94,4.91c-1.24,1.15 -2.49,2.23 -3.73,3.26c-1.2,0.99 -2.36,1.91 -3.5,2.75c-1.06,0.8 -3.01,2.15 -3.88,2.7c-0.79,0.5 -1.53,0.93 -2.23,1.28c-0.66,0.33 -1.3,0.61 -1.94,0.85c-0.63,0.24 -1.97,0.64 -2.69,0.84c-0.75,0.2 -1.53,0.39 -2.33,0.55c-0.81,0.16 -1.62,0.29 -2.43,0.37c-0.8,0.08 -2.36,0.08 -3.09,-0.02c-0.71,-0.1 -1.38,-0.26 -2.01,-0.47c-0.61,-0.21 -1.18,-0.46 -1.71,-0.74c-0.5,-0.27 -1.38,-0.87 -1.76,-1.18c-0.35,-0.3 -0.67,-0.61 -0.94,-0.95c-0.27,-0.34 -0.51,-0.72 -0.73,-1.13c-0.22,-0.43 -0.63,-1.44 -0.82,-2.02c-0.21,-0.62 -0.4,-1.3 -0.58,-2.02c-0.19,-0.77 -0.36,-1.6 -0.51,-2.48c-0.15,-0.92 -0.39,-2.92 -0.47,-4c-0.08,-1.11 -0.13,-2.25 -0.15,-3.41c-0.02,-1.16 -0.01,-2.32 0.03,-3.46c0.04,-1.12 0.2,-3.22 0.32,-4.19c0.12,-0.93 0.27,-1.84 0.45,-2.73c0.18,-0.9 0.4,-1.83 0.63,-2.8c0.25,-1.03 0.81,-3.33 1.12,-4.63c0.33,-1.4 0.68,-2.89 1.05,-4.46c0.39,-1.63 0.79,-3.32 1.23,-5.05c0.44,-1.77 1.4,-5.35 1.92,-7.15c0.52,-1.8 1.07,-3.61 1.65,-5.41c0.58,-1.81 1.19,-3.63 1.83,-5.45c0.64,-1.83 2,-5.51 2.72,-7.36c0.72,-1.86 1.45,-3.7 2.2,-5.52c0.73,-1.8 1.47,-3.55 2.2,-5.25c0.7,-1.65 2.06,-4.71 2.7,-6.12c0.61,-1.33 1.19,-2.59 1.77,-3.78c0.55,-1.15 1.1,-2.25 1.64,-3.33c0.53,-1.06 1.62,-3.15 2.18,-4.21c0.57,-1.08 1.16,-2.18 1.8,-3.31c0.66,-1.18 1.37,-2.41 2.14,-3.69c0.81,-1.35 2.67,-4.29 3.71,-5.87c1.1,-1.67 2.25,-3.38 3.44,-5.12c1.2,-1.75 2.42,-3.5 3.62,-5.21c1.17,-1.66 3.39,-4.76 4.41,-6.15c0.96,-1.31 1.87,-2.53 2.77,-3.69c0.87,-1.12 1.75,-2.21 2.65,-3.28c0.91,-1.08 2.89,-3.3 3.98,-4.47c1.15,-1.23 2.36,-2.49 3.64,-3.79c1.33,-1.35 2.72,-2.73 4.17,-4.14c1.49,-1.45 4.6,-4.4 6.23,-5.9c1.65,-1.52 3.32,-3.05 5.03,-4.56c1.7,-1.51 3.41,-2.98 5.13,-4.41c1.69,-1.41 5.04,-4.04 6.69,-5.24c1.6,-1.16 3.18,-2.25 4.75,-3.27c1.53,-0.99 3.04,-1.91 4.55,-2.78c1.47,-0.85 4.4,-2.41 5.85,-3.14c1.43,-0.71 2.85,-1.39 4.27,-2.01c1.4,-0.62 2.79,-1.19 4.18,-1.71c1.37,-0.51 4.09,-1.39 5.44,-1.76c1.33,-0.36 2.64,-0.66 3.94,-0.9c1.27,-0.24 2.52,-0.42 3.75,-0.54c1.19,-0.12 3.47,-0.2 4.55,-0.16c1.04,0.04 2.04,0.13 2.99,0.26c0.91,0.12 1.78,0.29 2.59,0.47c0.77,0.18 2.17,0.57 2.8,0.78c0.58,0.2 1.12,0.41 1.61,0.66c0.46,0.24 0.89,0.53 1.26,0.88c0.38,0.35 1.02,1.25 1.29,1.79c0.29,0.58 0.53,1.23 0.72,1.94c0.2,0.75 0.35,1.57 0.43,2.44c0.09,0.92 0.08,2.92 -0.01,3.99c-0.1,1.12 -0.27,2.29 -0.5,3.48c-0.24,1.24 -0.54,2.5 -0.88,3.79c-0.35,1.32 -1.19,3.99 -1.67,5.34c-0.48,1.36 -0.99,2.71 -1.53,4.05c-0.54,1.33 -1.09,2.63 -1.66,3.89c-0.55,1.23 -1.67,3.54 -2.22,4.61c-0.53,1.03 -1.08,2.02 -1.64,2.99c-0.56,0.97 -1.15,1.93 -1.76,2.91c-0.64,1.02 -2.05,3.19 -2.83,4.38c-0.81,1.24 -1.66,2.52 -2.52,3.82c-0.87,1.31 -1.75,2.62 -2.61,3.91c-0.84,1.25 -2.43,3.59 -3.16,4.66c-0.69,1 -1.35,1.95 -1.99,2.87c-0.64,0.9 -1.28,1.81 -1.94,2.72c-0.68,0.95 -2.18,3.01 -3.01,4.15c-0.88,1.21 -1.82,2.49 -2.8,3.82c-1.02,1.38 -2.07,2.8 -3.16,4.25c-1.11,1.48 -3.38,4.47 -4.54,5.96c-1.15,1.49 -2.31,2.97 -3.45,4.42c-1.12,1.42 -2.22,2.8 -3.29,4.13c-1.03,1.28 -2.94,3.63 -3.81,4.69c-0.82,1 -1.61,1.94 -2.38,2.83c-0.75,0.87 -1.5,1.71 -2.27,2.54c-0.78,0.84 -2.48,2.58 -3.41,3.49c-0.98,0.96 -2.01,1.93 -3.08,2.93c-1.09,1.01 -2.22,2.03 -3.36,3.03c-1.15,1.01 -3.46,2.96 -4.61,3.89c-1.13,0.91 -2.24,1.79 -3.34,2.64c-1.07,0.83 -2.12,1.63 -3.15,2.4c-0.99,0.75 -2.87,2.19 -3.75,2.88c-0.84,0.66 -1.64,1.31 -2.39,1.93c-0.71,0.59 -1.38,1.15 -1.99,1.68c-0.57,0.49 -1.57,1.37 -2,1.75c-0.38,0.34 -0.72,0.65 -1.03,0.93c-0.28,0.25 -0.53,0.48 -0.76,0.68c-0.21,0.19 -0.62,0.51 -0.82,0.65c-0.19,0.14 -0.39,0.26 -0.57,0.38c-0.17,0.11 -0.32,0.2 -0.46,0.29c-0.12,0.07 -0.28,0.19 -0.31,0.24c-0.02,0.03 0,0.07 0.04,0.09c0.05,0.02 0.12,0.03 0.21,0.03c0.09,0 0.29,0.01 0.39,0c0.1,0 0.21,0 0.32,-0.01c0.12,-0.01 0.25,-0.02 0.39,-0.05c0.16,-0.03 0.52,-0.11 0.73,-0.17c0.23,-0.07 0.49,-0.15 0.78,-0.26c0.32,-0.12 0.68,-0.27 1.07,-0.45c0.44,-0.2 1.44,-0.73 2.01,-1.05c0.62,-0.35 1.27,-0.73 1.94,-1.14c0.69,-0.42 1.4,-0.85 2.1,-1.28c0.7,-0.43 2.05,-1.26 2.69,-1.65c0.61,-0.38 1.21,-0.75 1.8,-1.12c0.59,-0.38 1.18,-0.77 1.78,-1.2c0.63,-0.44 1.96,-1.45 2.67,-2.03c0.75,-0.61 1.53,-1.26 2.32,-1.93c0.8,-0.68 1.6,-1.37 2.39,-2.06c0.77,-0.67 2.24,-1.94 2.93,-2.52c0.65,-0.55 1.27,-1.08 1.88,-1.58c0.6,-0.5 1.2,-1 1.81,-1.51c0.63,-0.52 1.96,-1.65 2.67,-2.27c0.75,-0.65 1.52,-1.32 2.31,-2.02c0.79,-0.7 1.57,-1.4 2.34,-2.09c0.75,-0.67 2.14,-1.94 2.76,-2.52c0.59,-0.54 1.13,-1.06 1.66,-1.55c0.51,-0.47 1,-0.93 1.5,-1.37c0.5,-0.44 1.55,-1.33 2.11,-1.78c0.58,-0.46 1.19,-0.93 1.8,-1.38c0.61,-0.46 1.22,-0.9 1.82,-1.33c0.58,-0.41 1.65,-1.17 2.13,-1.5c0.44,-0.31 0.85,-0.59 1.23,-0.85c0.35,-0.24 0.68,-0.45 0.98,-0.65c0.28,-0.18 0.81,-0.51 1.05,-0.65c0.23,-0.14 0.46,-0.26 0.68,-0.36c0.2,-0.1 0.4,-0.18 0.59,-0.24c0.17,-0.05 0.5,-0.1 0.64,-0.08c0.14,0.02 0.26,0.07 0.38,0.14c0.11,0.07 0.21,0.17 0.29,0.28c0.08,0.12 0.2,0.4 0.24,0.56c0.04,0.16 0.07,0.34 0.07,0.51c0.01,0.18 0,0.38 -0.01,0.57c-0.02,0.2 -0.1,0.6 -0.16,0.8c-0.06,0.2 -0.12,0.39 -0.16,0.58c-0.04,0.18 -0.07,0.35 -0.04,0.51c0.03,0.15 0.24,0.4 0.43,0.47c0.22,0.08 0.5,0.11 0.81,0.09c0.37,-0.03 0.78,-0.13 1.23,-0.31c0.51,-0.2 1.63,-0.85 2.23,-1.31c0.66,-0.49 1.33,-1.06 2.02,-1.67c0.7,-0.63 1.4,-1.29 2.09,-1.96c0.68,-0.66 1.94,-1.93 2.52,-2.51c0.54,-0.55 1.06,-1.06 1.53,-1.55c0.45,-0.47 0.88,-0.92 1.28,-1.37c0.39,-0.44 1.11,-1.32 1.45,-1.78c0.34,-0.46 0.66,-0.92 0.96,-1.37c0.3,-0.44 0.57,-0.87 0.84,-1.28c0.25,-0.38 0.68,-1.06 0.88,-1.34c0.17,-0.24 0.32,-0.45 0.46,-0.63c0.12,-0.15 0.22,-0.28 0.32,-0.38c0.08,-0.09 0.2,-0.21 0.24,-0.25c0.04,-0.03 0.07,-0.06 0.09,-0.05c0.02,0.01 0.03,0.05 0.03,0.11c0.01,0.08 0,0.32 0,0.49c0,0.19 0,0.4 0,0.63c0,0.24 0,0.5 0,0.76c0,0.26 0,0.78 0,1.02c0,0.24 0,0.46 0.01,0.69c0.01,0.22 0.02,0.43 0.05,0.63c0.02,0.2 0.1,0.61 0.17,0.8c0.06,0.2 0.15,0.4 0.28,0.57c0.13,0.18 0.32,0.34 0.55,0.46c0.26,0.13 0.95,0.29 1.38,0.31c0.48,0.02 1.02,-0.01 1.6,-0.1c0.62,-0.09 1.28,-0.23 1.96,-0.44c0.71,-0.21 2.19,-0.82 2.94,-1.21c0.77,-0.4 1.53,-0.86 2.28,-1.36c0.76,-0.5 1.5,-1.04 2.23,-1.6c0.72,-0.55 2.07,-1.66 2.7,-2.21c0.61,-0.54 1.21,-1.07 1.78,-1.62c0.57,-0.54 1.13,-1.1 1.69,-1.67c0.57,-0.58 1.73,-1.83 2.34,-2.5c0.63,-0.69 1.26,-1.39 1.9,-2.1c0.64,-0.71 1.27,-1.42 1.9,-2.12c0.61,-0.68 1.76,-1.95 2.3,-2.53c0.51,-0.55 1,-1.07 1.48,-1.57c0.47,-0.49 0.93,-0.98 1.39,-1.47c0.47,-0.5 1.43,-1.54 1.94,-2.11c0.53,-0.59 1.07,-1.2 1.61,-1.84c0.55,-0.65 1.1,-1.32 1.64,-2.01c0.54,-0.69 1.58,-2.08 2.06,-2.79c0.48,-0.69 0.92,-1.38 1.35,-2.05c0.41,-0.65 0.8,-1.27 1.17,-1.87c0.35,-0.56 0.99,-1.56 1.28,-1.98c0.27,-0.38 0.52,-0.72 0.76,-1.02c0.22,-0.27 0.42,-0.5 0.62,-0.71c0.18,-0.19 0.5,-0.51 0.64,-0.66c0.14,-0.14 0.26,-0.26 0.39,-0.39c0.12,-0.12 0.23,-0.23 0.33,-0.33c0.1,-0.1 0.3,-0.31 0.4,-0.4c0.1,-0.1 0.2,-0.19 0.3,-0.28c0.1,-0.08 0.2,-0.15 0.3,-0.21c0.1,-0.05 0.3,-0.09 0.4,-0.07c0.1,0.02 0.2,0.09 0.28,0.2c0.09,0.13 0.16,0.32 0.21,0.56c0.06,0.29 0.09,1.06 0.07,1.54c-0.02,0.54 -0.07,1.14 -0.13,1.78c-0.07,0.67 -0.15,1.37 -0.24,2.09c-0.09,0.72 -0.29,2.15 -0.39,2.84c-0.1,0.68 -0.21,1.37 -0.32,2.07c-0.12,0.72 -0.25,1.48 -0.39,2.28c-0.15,0.86 -0.52,2.79 -0.73,3.89c-0.23,1.18 -0.47,2.43 -0.73,3.76c-0.27,1.39 -0.55,2.85 -0.84,4.36c-0.3,1.56 -0.89,4.79 -1.19,6.45c-0.3,1.68 -0.6,3.37 -0.89,5.06c-0.29,1.67 -0.57,3.32 -0.85,4.93c-0.27,1.57 -0.79,4.51 -1.04,5.87c-0.24,1.3 -0.48,2.56 -0.73,3.79c-0.25,1.22 -0.52,2.46 -0.82,3.72c-0.31,1.31 -1.04,4.13 -1.46,5.68c-0.45,1.64 -0.94,3.35 -1.46,5.12c-0.54,1.83 -1.1,3.7 -1.67,5.59c-0.58,1.91 -1.78,5.74 -2.38,7.62c-0.59,1.86 -1.19,3.69 -1.78,5.48c-0.58,1.74 -1.14,3.42 -1.71,5.04c-0.54,1.55 -1.57,4.43 -2.07,5.73c-0.47,1.23 -0.94,2.4 -1.4,3.52c-0.45,1.09 -0.92,2.16 -1.4,3.22c-0.49,1.07 -1.53,3.29 -2.1,4.46c-0.59,1.21 -1.2,2.46 -1.84,3.71c-0.65,1.27 -1.31,2.53 -2.01,3.76c-0.68,1.22 -2.07,3.53 -2.79,4.59c-0.68,1.02 -1.37,1.97 -2.05,2.85c-0.64,0.84 -1.27,1.6 -1.87,2.31c-0.55,0.65 -1.55,1.77 -1.98,2.24c-0.38,0.42 -0.72,0.78 -1.05,1.09c-0.29,0.28 -0.57,0.51 -0.85,0.7c-0.27,0.17 -0.84,0.42 -1.15,0.5c-0.32,0.08 -0.65,0.11 -0.98,0.08c-0.32,-0.04 -0.64,-0.15 -0.9,-0.36c-0.28,-0.22 -0.67,-0.97 -0.77,-1.47c-0.11,-0.57 -0.12,-1.24 -0.09,-1.98c0.04,-0.82 0.16,-1.7 0.33,-2.65c0.18,-1.02 0.7,-3.21 1.03,-4.38c0.34,-1.21 0.73,-2.45 1.14,-3.7c0.41,-1.26 0.84,-2.5 1.28,-3.72c0.43,-1.19 1.26,-3.41 1.65,-4.43c0.38,-0.96 0.75,-1.89 1.13,-2.78c0.38,-0.89 0.8,-1.78 1.24,-2.69c0.47,-0.95 1.56,-3.01 2.19,-4.14c0.67,-1.21 1.4,-2.46 2.16,-3.74c0.77,-1.31 1.57,-2.62 2.37,-3.92c0.79,-1.28 2.34,-3.7 3.08,-4.82c0.71,-1.07 1.41,-2.09 2.1,-3.08c0.68,-0.99 1.38,-1.98 2.08,-2.99c0.72,-1.05 2.25,-3.31 3.07,-4.55c0.86,-1.31 1.75,-2.68 2.67,-4.11c0.95,-1.47 1.92,-2.97 2.92,-4.5c1.01,-1.55 3.09,-4.66 4.15,-6.2c1.05,-1.53 2.11,-3.04 3.16,-4.52c1.03,-1.46 2.05,-2.87 3.04,-4.25c0.96,-1.33 2.75,-3.85 3.57,-5.02c0.79,-1.12 1.54,-2.21 2.28,-3.27c0.73,-1.04 1.45,-2.08 2.19,-3.12c0.75,-1.06 2.37,-3.28 3.24,-4.45c0.91,-1.22 1.86,-2.47 2.84,-3.74c0.99,-1.29 2,-2.6 3,-3.9c1,-1.3 2.95,-3.85 3.88,-5.08c0.91,-1.2 1.78,-2.37 2.61,-3.5c0.81,-1.09 1.58,-2.15 2.31,-3.16c0.7,-0.97 1.98,-2.76 2.56,-3.59c0.55,-0.79 1.07,-1.55 1.57,-2.29c0.49,-0.74 0.98,-1.48 1.47,-2.24c0.5,-0.78 1.55,-2.48 2.11,-3.41c0.59,-0.97 1.19,-1.99 1.81,-3.02c0.62,-1.05 1.25,-2.1 1.87,-3.13c0.61,-1.01 1.76,-2.92 2.29,-3.79c0.5,-0.81 0.98,-1.57 1.42,-2.26c0.41,-0.64 0.8,-1.23 1.15,-1.76c0.32,-0.48 0.88,-1.28 1.12,-1.6c0.21,-0.28 0.39,-0.52 0.55,-0.71c0.13,-0.16 0.25,-0.28 0.35,-0.36c0.08,-0.06 0.21,-0.11 0.25,-0.09c0.04,0.02 0.07,0.09 0.08,0.17c0.01,0.11 0,0.25 -0.02,0.42c-0.02,0.21 -0.1,0.73 -0.16,1.05c-0.06,0.35 -0.13,0.74 -0.21,1.15c-0.08,0.43 -0.17,0.87 -0.27,1.33c-0.1,0.46 -0.29,1.37 -0.4,1.82c-0.1,0.44 -0.2,0.86 -0.3,1.28c-0.1,0.41 -0.2,0.8 -0.3,1.18c-0.1,0.38 -0.3,1.1 -0.4,1.44c-0.1,0.33 -0.19,0.66 -0.28,0.96c-0.08,0.29 -0.15,0.57 -0.21,0.84c-0.05,0.25 -0.09,0.69 -0.07,0.88c0.02,0.17 0.06,0.33 0.13,0.46c0.06,0.12 0.14,0.23 0.24,0.32c0.09,0.08 0.29,0.21 0.39,0.24c0.1,0.04 0.22,0.05 0.35,0.03c0.15,-0.02 0.33,-0.09 0.53,-0.2c0.25,-0.13 0.85,-0.54 1.22,-0.82c0.42,-0.32 0.87,-0.68 1.35,-1.08c0.51,-0.43 1.03,-0.89 1.55,-1.39c0.53,-0.51 1.57,-1.58 2.05,-2.14c0.48,-0.55 0.92,-1.11 1.33,-1.67c0.4,-0.54 0.76,-1.07 1.08,-1.58c0.3,-0.48 0.78,-1.35 0.95,-1.74c0.15,-0.34 0.26,-0.64 0.34,-0.91c0.07,-0.23 0.11,-0.42 0.13,-0.59c0.02,-0.13 0.02,-0.29 0.02,-0.32c0,-0.01 0,0.01 0,0.05c0,0.06 0,0.15 0,0.25c0,0.12 0,0.4 0,0.55c0,0.17 0,0.34 0.01,0.54c0.01,0.21 0.02,0.43 0.05,0.66c0.03,0.25 0.11,0.82 0.16,1.12c0.06,0.32 0.14,0.66 0.23,1c0.09,0.34 0.19,0.68 0.32,1c0.12,0.31 0.39,0.87 0.56,1.1c0.16,0.21 0.34,0.39 0.55,0.5c0.21,0.11 0.45,0.17 0.71,0.16c0.28,-0.01 0.93,-0.22 1.29,-0.41c0.4,-0.21 0.81,-0.48 1.23,-0.78c0.45,-0.33 0.9,-0.69 1.36,-1.09c0.47,-0.41 1.38,-1.28 1.82,-1.74c0.45,-0.47 0.88,-0.96 1.32,-1.48c0.45,-0.54 0.91,-1.12 1.37,-1.75c0.49,-0.66 1.54,-2.15 2.1,-2.98c0.59,-0.87 1.19,-1.79 1.81,-2.72c0.62,-0.95 1.25,-1.9 1.87,-2.83c0.6,-0.91 1.76,-2.62 2.29,-3.39c0.51,-0.73 1,-1.42 1.48,-2.09c0.47,-0.66 0.93,-1.33 1.39,-2.01c0.47,-0.71 1.44,-2.29 1.94,-3.18c0.54,-0.95 1.08,-1.96 1.64,-3.02c0.58,-1.11 1.18,-2.27 1.78,-3.47c0.62,-1.23 1.9,-3.79 2.55,-5.1c0.66,-1.32 1.32,-2.64 1.98,-3.96c0.65,-1.3 1.3,-2.57 1.93,-3.81c0.61,-1.2 1.76,-3.43 2.3,-4.44c0.51,-0.96 1.01,-1.88 1.49,-2.78c0.48,-0.89 0.95,-1.78 1.43,-2.69c0.5,-0.95 1.55,-3.01 2.11,-4.15c0.59,-1.21 1.2,-2.49 1.81,-3.83c0.63,-1.39 1.26,-2.82 1.87,-4.29c0.62,-1.5 1.77,-4.57 2.29,-6.13c0.52,-1.56 1,-3.13 1.44,-4.7c0.44,-1.57 0.84,-3.15 1.2,-4.72c0.36,-1.57 1,-4.68 1.28,-6.23c0.28,-1.53 0.53,-3.04 0.76,-4.53c0.23,-1.46 0.43,-2.9 0.62,-4.3c0.18,-1.36 0.5,-3.96 0.64,-5.18c0.14,-1.17 0.26,-2.29 0.38,-3.35c0.11,-1 0.2,-1.95 0.29,-2.83c0.08,-0.82 0.2,-2.26 0.24,-2.87c0.04,-0.55 0.07,-1.04 0.09,-1.48c0.02,-0.39 0.03,-0.73 0.03,-1.03c0,-0.27 0.01,-0.71 0,-0.9c0,-0.17 0,-0.32 -0.01,-0.44c-0.01,-0.1 -0.01,-0.18 -0.05,-0.22c-0.02,-0.03 -0.11,0.02 -0.16,0.09c-0.07,0.1 -0.15,0.26 -0.25,0.48c-0.12,0.28 -0.25,0.65 -0.41,1.11c-0.19,0.56 -0.63,2.01 -0.89,2.92c-0.29,1.04 -0.61,2.19 -0.93,3.45c-0.35,1.36 -0.71,2.82 -1.06,4.37c-0.37,1.63 -1.09,5.1 -1.42,6.93c-0.35,1.88 -0.67,3.82 -0.99,5.8c-0.32,2.02 -0.63,4.07 -0.93,6.16c-0.31,2.11 -0.9,6.38 -1.2,8.54c-0.3,2.17 -0.61,4.35 -0.92,6.56c-0.32,2.23 -0.65,4.48 -0.99,6.75c-0.35,2.31 -1.11,7.03 -1.53,9.45c-0.42,2.46 -0.86,4.94 -1.32,7.45c-0.46,2.53 -0.92,5.07 -1.39,7.63c-0.47,2.56 -1.39,7.67 -1.83,10.22c-0.44,2.53 -0.87,5.06 -1.29,7.57c-0.42,2.5 -0.83,5 -1.23,7.49c-0.4,2.47 -1.2,7.4 -1.6,9.84c-0.4,2.42 -0.79,4.82 -1.19,7.17c-0.39,2.3 -0.77,4.55 -1.15,6.72c-0.37,2.09 -1.09,6 -1.44,7.8c-0.33,1.71 -0.67,3.35 -1.01,4.95c-0.33,1.57 -0.67,3.13 -1.02,4.71c-0.36,1.62 -1.12,5.04 -1.53,6.89c-0.43,1.92 -0.86,3.9 -1.3,5.92c-0.44,2.03 -0.88,4.04 -1.3,6.03c-0.41,1.93 -1.16,5.54 -1.5,7.18c-0.31,1.53 -0.59,2.97 -0.86,4.32c-0.25,1.27 -0.48,2.48 -0.69,3.63c-0.21,1.11 -0.61,3.24 -0.81,4.29c-0.2,1.04 -0.4,2.06 -0.6,3.07c-0.2,1.01 -0.4,2 -0.6,2.98c-0.2,0.98 -0.6,2.9 -0.8,3.84c-0.2,0.94 -0.4,1.89 -0.61,2.86c-0.21,0.99 -0.43,2 -0.65,3.06c-0.23,1.1 -0.71,3.47 -0.96,4.75c-0.27,1.34 -0.54,2.74 -0.81,4.17c-0.28,1.46 -0.57,2.95 -0.87,4.44c-0.3,1.49 -0.89,4.44 -1.2,5.88c-0.3,1.41 -0.59,2.78 -0.89,4.13c-0.29,1.32 -0.57,2.6 -0.85,3.86c-0.27,1.22 -0.79,3.58 -1.04,4.72c-0.24,1.1 -0.46,2.17 -0.67,3.19c-0.21,0.98 -0.4,1.92 -0.59,2.82c-0.17,0.84 -0.49,2.36 -0.64,3.03c-0.13,0.61 -0.26,1.18 -0.39,1.69c-0.11,0.47 -0.22,0.9 -0.33,1.3c-0.1,0.36 -0.3,1.01 -0.4,1.3c-0.1,0.27 -0.2,0.52 -0.3,0.75c-0.1,0.21 -0.2,0.4 -0.3,0.57c-0.1,0.15 -0.3,0.4 -0.4,0.48c-0.1,0.08 -0.2,0.13 -0.3,0.17c-0.1,0.04 -0.2,0.05 -0.3,0.06l-0.1,0.01" fill="none" id="svg_3" stroke="#000000"/>
  <path d="m312.88,270.71c-1,0 -2.06,-0.24 -1.74,-0.89c0.38,-0.77 1.38,-1.18 2.08,-1.63c0.4,-0.26 1.84,-1.12 2.4,-1.45c0.59,-0.35 1.22,-0.72 1.88,-1.11c0.69,-0.41 1.41,-0.84 2.15,-1.29c1.56,-0.95 2.37,-1.47 3.22,-2.01c0.89,-0.57 1.85,-1.17 2.88,-1.81c1.12,-0.69 2.34,-1.43 3.69,-2.21c3.09,-1.79 4.87,-2.76 6.8,-3.8c2.05,-1.11 4.23,-2.26 6.51,-3.45c2.37,-1.23 4.81,-2.49 7.32,-3.76c5.14,-2.6 7.75,-3.89 10.37,-5.19c2.63,-1.3 5.26,-2.58 7.89,-3.86c2.62,-1.27 5.22,-2.53 7.8,-3.77c5.07,-2.44 7.55,-3.63 9.98,-4.79c2.37,-1.14 4.68,-2.24 6.9,-3.29c2.14,-1.02 4.19,-1.98 6.14,-2.89c3.54,-1.64 5.13,-2.35 6.59,-3c1.34,-0.59 2.56,-1.11 3.66,-1.57c0.99,-0.41 1.88,-0.77 2.67,-1.08c1.28,-0.49 1.79,-0.67 2.21,-0.81c0.35,-0.12 0.62,-0.2 0.84,-0.26c0.16,-0.04 0.27,-0.07 0.35,-0.08c0.05,-0.01 0.04,-0.01 0.01,-0.01c-0.04,0 -0.09,0 -0.15,0l-0.06,0l-0.07,0l-0.07,0" fill="none" id="svg_4" stroke="#000000"/>
 </g>
</svg>