<?xml version="1.0"?>
<svg width="640" height="480" xmlns="http://www.w3.org/2000/svg" xmlns:svg="http://www.w3.org/2000/svg">
 <!-- Created with SVG-edit - https://github.com/SVG-Edit/svgedit-->
 <g class="layer">
  <title>Layer 1</title>
  <polyline fill="none" id="svg_2" opacity="0.5" points="401.8823813725919,297.7058763142456 " stroke="#000000" stroke-linecap="round"/>
  <path d="m217.94,147.76c-0.65,0.76 -0.97,1.69 -0.95,2.46c0.01,0.74 0.12,1.7 0.18,2.29c0.13,1.38 0.22,2.18 0.32,3.04c0.1,0.94 0.22,1.94 0.35,3.01c0.28,2.36 0.43,3.64 0.6,5c0.17,1.42 0.35,2.91 0.54,4.47c0.19,1.62 0.39,3.3 0.58,5.05c0.41,3.68 0.6,5.61 0.8,7.6c0.2,2.04 0.39,4.14 0.56,6.29c0.18,2.2 0.34,4.45 0.47,6.74c0.27,4.72 0.34,7.13 0.4,9.58c0.06,2.45 0.1,4.89 0.11,7.31c0.01,2.38 0.01,4.7 -0.03,6.95c-0.06,4.22 -0.12,6.16 -0.2,8.02c-0.08,1.8 -0.18,3.56 -0.31,5.32c-0.14,1.8 -0.31,3.65 -0.54,5.6c-0.49,4.28 -0.84,6.67 -1.2,9.22c-0.39,2.7 -0.81,5.52 -1.28,8.46c-0.48,3.03 -1,6.14 -1.55,9.31c-1.13,6.46 -1.76,9.71 -2.39,12.95c-0.63,3.21 -1.27,6.37 -1.91,9.46c-0.63,3 -1.25,5.9 -1.87,8.65c-1.13,5.06 -1.68,7.32 -2.21,9.41c-0.5,1.97 -1,3.83 -1.53,5.6c-0.52,1.73 -1.08,3.45 -1.71,5.15c-1.32,3.58 -2.14,5.46 -3.01,7.41c-0.89,2.01 -1.86,4.05 -2.91,6.07c-1.05,2.02 -2.14,4.01 -3.36,5.89c-2.34,3.6 -3.66,5.15 -4.98,6.57c-1.26,1.37 -2.56,2.58 -3.87,3.64c-1.24,1.01 -2.47,1.89 -3.69,2.61c-2.18,1.28 -3.23,1.69 -4.2,2.01c-0.91,0.29 -1.8,0.47 -2.67,0.51c-0.86,0.04 -1.74,-0.05 -2.62,-0.26c-1.92,-0.46 -2.94,-0.91 -4,-1.41c-1.12,-0.52 -2.26,-1.15 -3.38,-1.92c-1.16,-0.8 -2.31,-1.73 -3.33,-2.87c-2.17,-2.41 -2.99,-3.97 -3.78,-5.6c-0.83,-1.71 -1.51,-3.58 -2.08,-5.57c-0.59,-2.08 -1.06,-4.29 -1.36,-6.61c-0.63,-4.9 -0.62,-7.5 -0.61,-10.16c0.01,-2.71 0.15,-5.44 0.36,-8.17c0.21,-2.71 0.49,-5.39 0.85,-7.99c0.69,-4.94 1.14,-7.23 1.6,-9.42c0.45,-2.14 0.98,-4.24 1.59,-6.35c0.62,-2.16 1.34,-4.38 2.17,-6.71c1.84,-5.15 2.98,-7.98 4.21,-11.01c1.3,-3.21 2.7,-6.55 4.23,-10.01c1.57,-3.57 3.23,-7.2 5.04,-10.86c3.67,-7.45 5.71,-11.11 7.77,-14.74c2.04,-3.6 4.13,-7.11 6.23,-10.52c2.04,-3.31 4.07,-6.48 6.05,-9.48c3.66,-5.52 5.38,-7.96 7.01,-10.21c1.54,-2.13 3.05,-4.13 4.56,-6.03c1.49,-1.86 3.03,-3.69 4.65,-5.49c3.43,-3.8 5.37,-5.76 7.41,-7.81c2.11,-2.12 4.32,-4.26 6.62,-6.39c2.32,-2.14 4.68,-4.26 7.12,-6.25c4.76,-3.89 7.19,-5.59 9.57,-7.17c2.31,-1.53 4.61,-2.92 6.89,-4.14c2.19,-1.18 4.35,-2.22 6.49,-3.06c3.99,-1.56 5.94,-2.02 7.79,-2.41c1.76,-0.37 3.45,-0.6 5.06,-0.72c1.52,-0.11 2.95,-0.13 4.29,-0.04c2.4,0.16 3.45,0.36 4.41,0.59c0.89,0.21 1.72,0.49 2.46,0.86c0.73,0.36 1.43,0.81 2.06,1.36c1.36,1.18 1.97,1.97 2.6,2.81c0.66,0.88 1.28,1.87 1.82,2.96c0.56,1.14 1.06,2.38 1.37,3.72c0.67,2.89 0.65,4.52 0.59,6.19c-0.06,1.76 -0.29,3.59 -0.63,5.48c-0.36,1.96 -0.83,3.97 -1.44,6.02c-1.26,4.26 -2.12,6.4 -2.98,8.57c-0.87,2.19 -1.8,4.35 -2.77,6.47c-0.95,2.09 -1.92,4.12 -2.91,6.07c-1.84,3.64 -2.74,5.27 -3.6,6.81c-0.83,1.48 -1.68,2.89 -2.55,4.27c-0.88,1.38 -1.81,2.77 -2.82,4.18c-2.19,3.05 -3.46,4.68 -4.81,6.41c-1.42,1.81 -2.92,3.68 -4.51,5.58c-1.63,1.95 -3.32,3.91 -5.1,5.85c-3.58,3.9 -5.48,5.75 -7.37,7.57c-1.87,1.8 -3.75,3.52 -5.61,5.18c-1.81,1.61 -3.58,3.15 -5.3,4.6c-3.17,2.69 -4.63,3.88 -6,5.01c-1.3,1.07 -2.54,2.08 -3.74,3.06c-1.18,0.95 -2.34,1.89 -3.52,2.83c-2.42,1.94 -3.69,2.96 -5,4c-1.32,1.06 -2.65,2.12 -3.96,3.17c-1.28,1.02 -2.52,2.01 -3.69,2.94c-2.1,1.66 -2.99,2.37 -3.79,2.99c-0.7,0.55 -1.31,1.02 -1.85,1.42c-0.46,0.35 -0.87,0.64 -1.22,0.88c-0.56,0.38 -0.8,0.51 -1,0.6c-0.14,0.06 -0.25,0.05 -0.24,-0.02c0.02,-0.15 0.21,-0.36 0.48,-0.65c0.83,-0.91 1.46,-1.5 2.19,-2.19c0.82,-0.78 1.73,-1.61 2.7,-2.49c1.02,-0.92 2.07,-1.85 3.15,-2.76c2.12,-1.8 3.17,-2.61 4.2,-3.39c1.01,-0.77 2.04,-1.51 3.09,-2.24c1.08,-0.75 2.21,-1.5 3.4,-2.28c2.61,-1.71 4.07,-2.62 5.61,-3.61c1.62,-1.04 3.33,-2.13 5.09,-3.27c1.83,-1.18 3.71,-2.4 5.63,-3.68c3.96,-2.62 5.96,-3.99 7.97,-5.38c2.01,-1.39 3.98,-2.77 5.92,-4.15c1.89,-1.34 3.7,-2.65 5.42,-3.93c3.15,-2.33 4.53,-3.4 5.8,-4.4c1.18,-0.93 2.27,-1.81 3.3,-2.65c0.98,-0.81 1.92,-1.6 2.85,-2.39c1.86,-1.57 2.82,-2.38 3.8,-3.2c0.98,-0.81 1.96,-1.61 2.91,-2.38c0.91,-0.73 1.78,-1.42 2.6,-2.02c1.37,-1 1.92,-1.35 2.39,-1.6c0.37,-0.19 0.67,-0.31 0.91,-0.33c0.17,-0.01 0.32,0.06 0.37,0.17c0.11,0.25 0.05,0.42 0.01,0.59c-0.04,0.19 -0.12,0.39 -0.21,0.61c-0.11,0.25 -0.24,0.53 -0.39,0.84c-0.36,0.73 -0.57,1.14 -0.79,1.59c-0.23,0.47 -0.46,0.96 -0.67,1.46c-0.21,0.5 -0.41,0.98 -0.54,1.46c-0.23,0.86 -0.24,1.25 -0.19,1.59c0.04,0.3 0.15,0.57 0.32,0.76c0.16,0.18 0.38,0.32 0.63,0.36c0.55,0.08 0.87,-0.06 1.2,-0.2c0.37,-0.16 0.76,-0.4 1.19,-0.69c0.48,-0.33 0.99,-0.73 1.55,-1.19c1.3,-1.07 2.02,-1.71 2.79,-2.39c0.82,-0.72 1.66,-1.48 2.52,-2.27c0.87,-0.8 1.73,-1.62 2.56,-2.45c1.6,-1.61 2.32,-2.41 2.99,-3.18c0.63,-0.73 1.21,-1.44 1.73,-2.11c0.48,-0.62 0.91,-1.21 1.27,-1.75c0.61,-0.91 0.83,-1.28 1.01,-1.6c0.14,-0.26 0.25,-0.48 0.32,-0.65c0.05,-0.13 0.08,-0.22 0.1,-0.29c0.01,-0.04 0.01,-0.03 0.01,0c0.01,0.06 0.02,0.14 0.04,0.25c0.03,0.14 0.07,0.31 0.13,0.52c0.15,0.53 0.26,0.84 0.41,1.19c0.16,0.38 0.35,0.77 0.61,1.14c0.27,0.4 0.59,0.79 1.01,1.1c0.91,0.67 1.54,0.84 2.19,0.99c0.68,0.16 1.42,0.23 2.17,0.24c0.77,0.01 1.55,-0.03 2.31,-0.16c1.48,-0.25 2.16,-0.52 2.8,-0.8c0.65,-0.29 1.29,-0.66 1.93,-1.1c0.69,-0.47 1.4,-1.02 2.16,-1.64c1.75,-1.43 2.73,-2.28 3.8,-3.2c1.14,-0.98 2.34,-2.01 3.58,-3.1c1.28,-1.13 2.59,-2.3 3.9,-3.51c2.64,-2.45 3.92,-3.72 5.18,-4.98c1.24,-1.24 2.43,-2.46 3.57,-3.66c1.1,-1.15 2.14,-2.26 3.12,-3.3c1.75,-1.87 2.51,-2.67 3.21,-3.41c0.63,-0.67 1.22,-1.29 1.77,-1.88c0.53,-0.57 1.04,-1.12 1.55,-1.7c1.06,-1.21 1.62,-1.89 2.2,-2.61c0.6,-0.74 1.21,-1.51 1.81,-2.3c0.6,-0.79 1.18,-1.57 1.72,-2.34c1.01,-1.45 1.42,-2.14 1.79,-2.79c0.34,-0.59 0.63,-1.15 0.88,-1.66c0.23,-0.46 0.41,-0.88 0.57,-1.26c0.25,-0.6 0.34,-0.82 0.4,-0.99c0.04,-0.11 0.05,-0.18 0.03,-0.17c-0.07,0.05 -0.15,0.21 -0.28,0.42c-0.41,0.64 -0.68,1.08 -0.99,1.59c-0.35,0.57 -0.74,1.2 -1.14,1.88c-0.42,0.72 -0.85,1.46 -1.27,2.24c-0.85,1.58 -1.23,2.39 -1.6,3.21c-0.37,0.84 -0.73,1.72 -1.07,2.65c-0.36,0.99 -0.72,2.07 -1.07,3.24c-0.79,2.65 -1.18,4.17 -1.6,5.8c-0.45,1.74 -0.91,3.59 -1.37,5.52c-0.48,2.01 -0.97,4.1 -1.46,6.24c-1.01,4.42 -1.5,6.69 -2,8.98c-0.5,2.32 -1.01,4.65 -1.52,7.01c-0.51,2.37 -1.03,4.75 -1.56,7.14c-1.07,4.8 -1.63,7.19 -2.2,9.58c-0.56,2.36 -1.12,4.68 -1.68,6.95c-0.54,2.2 -1.07,4.33 -1.59,6.36c-0.95,3.74 -1.39,5.43 -1.8,7c-0.39,1.48 -0.76,2.87 -1.13,4.2c-0.36,1.28 -0.71,2.52 -1.09,3.75c-0.75,2.47 -1.17,3.73 -1.6,5c-0.43,1.28 -0.87,2.53 -1.31,3.75c-0.43,1.17 -0.84,2.28 -1.27,3.3c-0.73,1.75 -1.07,2.44 -1.39,2.98c-0.26,0.43 -0.49,0.77 -0.73,0.87c-0.17,0.07 -0.38,-0.08 -0.46,-0.35c-0.29,-0.89 -0.21,-1.59 -0.2,-2.39c0.01,-0.93 0.08,-1.98 0.2,-3.13c0.13,-1.27 0.31,-2.63 0.56,-4.08c0.55,-3.16 0.96,-4.84 1.39,-6.57c0.44,-1.78 0.93,-3.57 1.46,-5.37c0.52,-1.8 1.07,-3.56 1.64,-5.28c1.08,-3.27 1.65,-4.77 2.2,-6.2c0.53,-1.38 1.09,-2.71 1.66,-4.02c0.58,-1.3 1.19,-2.61 1.84,-3.93c1.39,-2.79 2.18,-4.27 3,-5.81c0.85,-1.59 1.75,-3.22 2.68,-4.87c0.94,-1.67 1.91,-3.35 2.9,-5.01c1.97,-3.28 2.98,-4.85 3.99,-6.38c0.99,-1.5 1.98,-2.96 2.98,-4.36c0.98,-1.37 1.95,-2.69 2.94,-3.96c1.89,-2.42 2.86,-3.53 3.79,-4.6c0.9,-1.03 1.79,-1.99 2.65,-2.91c0.81,-0.86 1.6,-1.67 2.33,-2.41c1.31,-1.32 1.88,-1.89 2.4,-2.41c0.47,-0.47 0.91,-0.91 1.31,-1.31c0.38,-0.38 0.73,-0.73 1.08,-1.08c0.69,-0.69 1.04,-1.04 1.41,-1.4c0.37,-0.36 0.73,-0.72 1.1,-1.08c0.36,-0.35 0.71,-0.68 1.05,-0.99c0.63,-0.56 0.92,-0.79 1.2,-1c0.25,-0.18 0.48,-0.34 0.69,-0.47c0.19,-0.12 0.36,-0.21 0.51,-0.29c0.24,-0.13 0.33,-0.17 0.41,-0.2c0.06,-0.02 0.12,-0.03 0.17,-0.01c0.06,0.03 0.11,0.09 0.17,0.17c0.17,0.24 0.27,0.41 0.4,0.6c0.14,0.21 0.29,0.43 0.45,0.67c0.16,0.24 0.33,0.48 0.5,0.71c0.31,0.44 0.46,0.63 0.6,0.79c0.14,0.15 0.28,0.28 0.44,0.35c0.16,0.08 0.36,0.11 0.58,0.08c0.54,-0.07 0.85,-0.23 1.2,-0.41c0.4,-0.2 0.83,-0.45 1.28,-0.76c0.5,-0.34 1.02,-0.74 1.55,-1.21c1.19,-1.05 1.77,-1.7 2.39,-2.39c0.63,-0.71 1.25,-1.45 1.85,-2.22c0.6,-0.76 1.16,-1.51 1.67,-2.26c0.93,-1.37 1.29,-2 1.59,-2.58c0.27,-0.51 0.48,-0.98 0.63,-1.39c0.12,-0.34 0.22,-0.62 0.22,-0.85c0,-0.24 -0.11,-0.26 -0.19,-0.2c-0.13,0.09 -0.26,0.27 -0.41,0.49c-0.18,0.26 -0.36,0.56 -0.54,0.89c-0.41,0.75 -0.6,1.16 -0.79,1.59c-0.19,0.43 -0.36,0.88 -0.5,1.33c-0.14,0.45 -0.25,0.89 -0.28,1.33c-0.05,0.83 0.05,1.24 0.21,1.58c0.15,0.33 0.41,0.62 0.73,0.78c0.35,0.17 0.82,0.22 1.32,0.1c1.29,-0.31 2,-0.85 2.79,-1.41c0.9,-0.64 1.83,-1.43 2.8,-2.34c1.05,-0.99 2.13,-2.09 3.21,-3.33c2.33,-2.67 3.44,-4.2 4.58,-5.77c1.17,-1.61 2.3,-3.27 3.42,-4.96c1.11,-1.68 2.17,-3.36 3.19,-5.01c1.93,-3.13 2.79,-4.6 3.6,-6c0.79,-1.36 1.53,-2.7 2.25,-4.05c0.72,-1.36 1.42,-2.76 2.11,-4.23c1.48,-3.17 2.22,-4.94 3,-6.81c0.81,-1.95 1.62,-3.97 2.43,-6.05c0.82,-2.11 1.62,-4.25 2.38,-6.41c1.5,-4.25 2.16,-6.33 2.79,-8.37c0.61,-1.97 1.17,-3.87 1.7,-5.7c0.5,-1.74 0.96,-3.39 1.38,-4.94c0.76,-2.75 1.1,-3.94 1.4,-5.01c0.28,-0.97 0.54,-1.86 0.77,-2.68c0.22,-0.76 0.42,-1.48 0.59,-2.18c0.34,-1.38 0.47,-2.09 0.6,-2.81c0.13,-0.73 0.23,-1.45 0.31,-2.17c0.07,-0.7 0.13,-1.39 0.13,-2.04c0,-1.19 -0.08,-1.72 -0.21,-2.17c-0.11,-0.39 -0.27,-0.74 -0.52,-0.89c-0.24,-0.14 -0.6,-0.12 -0.93,0.1c-0.99,0.64 -1.43,1.39 -1.99,2.21c-0.64,0.95 -1.29,2.08 -1.93,3.38c-0.71,1.43 -1.4,3.01 -2.03,4.77c-1.37,3.88 -1.88,6.08 -2.39,8.39c-0.54,2.42 -1.02,4.97 -1.46,7.63c-0.46,2.76 -0.88,5.62 -1.28,8.58c-0.83,6.15 -1.21,9.33 -1.61,12.58c-0.4,3.3 -0.8,6.65 -1.2,10.05c-0.4,3.43 -0.8,6.89 -1.2,10.36c-0.8,6.99 -1.2,10.49 -1.6,13.97c-0.39,3.44 -0.78,6.83 -1.16,10.15c-0.37,3.23 -0.73,6.35 -1.07,9.34c-0.64,5.54 -0.93,8.05 -1.21,10.42c-0.27,2.25 -0.53,4.41 -0.81,6.51c-0.27,2.08 -0.57,4.17 -0.9,6.29c-0.7,4.49 -1.14,6.89 -1.6,9.41c-0.48,2.61 -0.99,5.28 -1.52,8.01c-0.54,2.75 -1.09,5.5 -1.66,8.23c-1.1,5.33 -1.66,7.89 -2.19,10.37c-0.52,2.39 -1.03,4.7 -1.53,6.92c-0.48,2.13 -0.94,4.17 -1.39,6.11c-0.83,3.6 -1.23,5.25 -1.6,6.8c-0.35,1.45 -0.68,2.81 -0.99,4.07c-0.29,1.17 -0.56,2.24 -0.81,3.21c-0.44,1.68 -0.63,2.39 -0.8,3.01c-0.15,0.55 -0.3,1.04 -0.43,1.48c-0.12,0.39 -0.23,0.75 -0.34,1.08c-0.2,0.61 -0.3,0.91 -0.4,1.21c-0.1,0.29 -0.19,0.57 -0.28,0.84l-0.08,0.25l-0.08,0.24l-0.07,0.22" fill="none" id="svg_12" stroke="#000000"/>
  <path d="m365.94,254.76c-0.95,-0.07 -0.61,-0.76 -0.25,-1.21c0.56,-0.68 0.98,-1.09 2.08,-2.13c0.7,-0.65 1.51,-1.36 2.44,-2.14c1.02,-0.86 2.14,-1.78 3.37,-2.75c1.32,-1.04 2.72,-2.15 5.86,-4.44c1.68,-1.23 3.45,-2.47 5.27,-3.73c1.85,-1.28 3.72,-2.55 5.6,-3.79c1.85,-1.23 3.66,-2.43 7.13,-4.64c1.6,-1.02 3.14,-1.98 4.63,-2.89c1.45,-0.89 2.89,-1.75 4.33,-2.61c1.47,-0.87 2.98,-1.76 6.2,-3.66c1.75,-1.03 3.58,-2.11 5.47,-3.23c1.95,-1.15 3.92,-2.32 5.91,-3.49c1.99,-1.18 3.96,-2.34 7.78,-4.61c1.82,-1.08 3.56,-2.12 5.23,-3.12c1.6,-0.95 3.12,-1.86 4.57,-2.73c1.37,-0.82 2.67,-1.59 5.03,-2.99c1.06,-0.63 2.04,-1.2 2.95,-1.73c0.83,-0.48 1.59,-0.92 2.28,-1.31c0.62,-0.35 1.17,-0.66 2.1,-1.13c0.37,-0.19 0.68,-0.33 0.94,-0.44c0.21,-0.09 0.37,-0.15 0.48,-0.19c0.07,-0.03 0.11,-0.04 0.07,-0.04c-0.06,0 -0.15,0 -0.27,0c-0.13,0 -0.27,0 -0.43,0l-0.16,0l-0.16,0" fill="none" id="svg_13" stroke="#000000"/>
 </g>
</svg>